<svg width="512" height="86" viewBox="0 0 512 86" fill="none" xmlns="http://www.w3.org/2000/svg">
<path d="M0.125 82.3125V66.3125C3.375 68.2708 6.60417 69.7292 9.8125 70.6875C13.0625 71.6458 16.125 72.125 19 72.125C22.5 72.125 25.25 71.6458 27.25 70.6875C29.2917 69.7292 30.3125 68.2708 30.3125 66.3125C30.3125 65.0625 29.8542 64.0208 28.9375 63.1875C28.0208 62.3542 26.8333 61.625 25.375 61C23.9583 60.375 22.3958 59.8125 20.6875 59.3125C18.9792 58.8125 17.3333 58.25 15.75 57.625C13.2083 56.6667 10.9583 55.6458 9 54.5625C7.08333 53.4375 5.45833 52.1458 4.125 50.6875C2.83333 49.2292 1.83333 47.5417 1.125 45.625C0.458333 43.7083 0.125 41.4375 0.125 38.8125C0.125 35.2292 0.895833 32.1458 2.4375 29.5625C4.02083 26.9792 6.10417 24.875 8.6875 23.25C11.3125 21.5833 14.2917 20.375 17.625 19.625C21 18.8333 24.5 18.4375 28.125 18.4375C30.9583 18.4375 33.8333 18.6667 36.75 19.125C39.6667 19.5417 42.5417 20.1667 45.375 21V36.25C42.875 34.7917 40.1875 33.7083 37.3125 33C34.4792 32.25 31.6875 31.875 28.9375 31.875C27.6458 31.875 26.4167 32 25.25 32.25C24.125 32.4583 23.125 32.7917 22.25 33.25C21.375 33.6667 20.6875 34.2292 20.1875 34.9375C19.6875 35.6042 19.4375 36.375 19.4375 37.25C19.4375 38.4167 19.8125 39.4167 20.5625 40.25C21.3125 41.0833 22.2917 41.8125 23.5 42.4375C24.7083 43.0208 26.0417 43.5625 27.5 44.0625C29 44.5208 30.4792 45 31.9375 45.5C34.5625 46.4167 36.9375 47.4167 39.0625 48.5C41.1875 49.5833 43 50.8542 44.5 52.3125C46.0417 53.7708 47.2083 55.4792 48 57.4375C48.8333 59.3958 49.25 61.7292 49.25 64.4375C49.25 68.2292 48.4167 71.4792 46.75 74.1875C45.125 76.8542 42.9375 79.0417 40.1875 80.75C37.4792 82.4167 34.3333 83.625 30.75 84.375C27.2083 85.1667 23.5208 85.5625 19.6875 85.5625C12.6458 85.5625 6.125 84.4792 0.125 82.3125ZM56.5 82.3125V66.3125C59.75 68.2708 62.9792 69.7292 66.1875 70.6875C69.4375 71.6458 72.5 72.125 75.375 72.125C78.875 72.125 81.625 71.6458 83.625 70.6875C85.6667 69.7292 86.6875 68.2708 86.6875 66.3125C86.6875 65.0625 86.2292 64.0208 85.3125 63.1875C84.3958 62.3542 83.2083 61.625 81.75 61C80.3333 60.375 78.7708 59.8125 77.0625 59.3125C75.3542 58.8125 73.7083 58.25 72.125 57.625C69.5833 56.6667 67.3333 55.6458 65.375 54.5625C63.4583 53.4375 61.8333 52.1458 60.5 50.6875C59.2083 49.2292 58.2083 47.5417 57.5 45.625C56.8333 43.7083 56.5 41.4375 56.5 38.8125C56.5 35.2292 57.2708 32.1458 58.8125 29.5625C60.3958 26.9792 62.4792 24.875 65.0625 23.25C67.6875 21.5833 70.6667 20.375 74 19.625C77.375 18.8333 80.875 18.4375 84.5 18.4375C87.3333 18.4375 90.2083 18.6667 93.125 19.125C96.0417 19.5417 98.9167 20.1667 101.75 21V36.25C99.25 34.7917 96.5625 33.7083 93.6875 33C90.8542 32.25 88.0625 31.875 85.3125 31.875C84.0208 31.875 82.7917 32 81.625 32.25C80.5 32.4583 79.5 32.7917 78.625 33.25C77.75 33.6667 77.0625 34.2292 76.5625 34.9375C76.0625 35.6042 75.8125 36.375 75.8125 37.25C75.8125 38.4167 76.1875 39.4167 76.9375 40.25C77.6875 41.0833 78.6667 41.8125 79.875 42.4375C81.0833 43.0208 82.4167 43.5625 83.875 44.0625C85.375 44.5208 86.8542 45 88.3125 45.5C90.9375 46.4167 93.3125 47.4167 95.4375 48.5C97.5625 49.5833 99.375 50.8542 100.875 52.3125C102.417 53.7708 103.583 55.4792 104.375 57.4375C105.208 59.3958 105.625 61.7292 105.625 64.4375C105.625 68.2292 104.792 71.4792 103.125 74.1875C101.5 76.8542 99.3125 79.0417 96.5625 80.75C93.8542 82.4167 90.7083 83.625 87.125 84.375C83.5833 85.1667 79.8958 85.5625 76.0625 85.5625C69.0208 85.5625 62.5 84.4792 56.5 82.3125ZM112.875 82.3125V66.3125C116.125 68.2708 119.354 69.7292 122.562 70.6875C125.812 71.6458 128.875 72.125 131.75 72.125C135.25 72.125 138 71.6458 140 70.6875C142.042 69.7292 143.062 68.2708 143.062 66.3125C143.062 65.0625 142.604 64.0208 141.688 63.1875C140.771 62.3542 139.583 61.625 138.125 61C136.708 60.375 135.146 59.8125 133.438 59.3125C131.729 58.8125 130.083 58.25 128.5 57.625C125.958 56.6667 123.708 55.6458 121.75 54.5625C119.833 53.4375 118.208 52.1458 116.875 50.6875C115.583 49.2292 114.583 47.5417 113.875 45.625C113.208 43.7083 112.875 41.4375 112.875 38.8125C112.875 35.2292 113.646 32.1458 115.188 29.5625C116.771 26.9792 118.854 24.875 121.438 23.25C124.062 21.5833 127.042 20.375 130.375 19.625C133.75 18.8333 137.25 18.4375 140.875 18.4375C143.708 18.4375 146.583 18.6667 149.5 19.125C152.417 19.5417 155.292 20.1667 158.125 21V36.25C155.625 34.7917 152.938 33.7083 150.062 33C147.229 32.25 144.438 31.875 141.688 31.875C140.396 31.875 139.167 32 138 32.25C136.875 32.4583 135.875 32.7917 135 33.25C134.125 33.6667 133.438 34.2292 132.938 34.9375C132.438 35.6042 132.188 36.375 132.188 37.25C132.188 38.4167 132.562 39.4167 133.312 40.25C134.062 41.0833 135.042 41.8125 136.25 42.4375C137.458 43.0208 138.792 43.5625 140.25 44.0625C141.75 44.5208 143.229 45 144.688 45.5C147.312 46.4167 149.688 47.4167 151.812 48.5C153.938 49.5833 155.75 50.8542 157.25 52.3125C158.792 53.7708 159.958 55.4792 160.75 57.4375C161.583 59.3958 162 61.7292 162 64.4375C162 68.2292 161.167 71.4792 159.5 74.1875C157.875 76.8542 155.688 79.0417 152.938 80.75C150.229 82.4167 147.083 83.625 143.5 84.375C139.958 85.1667 136.271 85.5625 132.438 85.5625C125.396 85.5625 118.875 84.4792 112.875 82.3125ZM212.125 83.25C209.208 84.7917 204.812 85.5625 198.938 85.5625C185.021 85.5625 178.062 78.3333 178.062 63.875V34.5625H167.688V20H178.062V6.1875L197.75 0.5625V20H212.125V34.5625H197.75V60.4375C197.75 67.1042 200.396 70.4375 205.688 70.4375C207.771 70.4375 209.917 69.8333 212.125 68.625V83.25ZM284.125 84H264.438V74.25H264.125C259.25 81.7917 252.729 85.5625 244.562 85.5625C229.729 85.5625 222.312 76.5833 222.312 58.625V20H242V56.875C242 65.9167 245.583 70.4375 252.75 70.4375C256.292 70.4375 259.125 69.2083 261.25 66.75C263.375 64.25 264.438 60.875 264.438 56.625V20H284.125V84ZM339.5 83.25C336.583 84.7917 332.188 85.5625 326.312 85.5625C312.396 85.5625 305.438 78.3333 305.438 63.875V34.5625H295.062V20H305.438V6.1875L325.125 0.5625V20H339.5V34.5625H325.125V60.4375C325.125 67.1042 327.771 70.4375 333.062 70.4375C335.146 70.4375 337.292 69.8333 339.5 68.625V83.25ZM389.375 83.25C386.458 84.7917 382.062 85.5625 376.188 85.5625C362.271 85.5625 355.312 78.3333 355.312 63.875V34.5625H344.938V20H355.312V6.1875L375 0.5625V20H389.375V34.5625H375V60.4375C375 67.1042 377.646 70.4375 382.938 70.4375C385.021 70.4375 387.167 69.8333 389.375 68.625V83.25ZM457.562 57.625H415.812C416.479 66.9167 422.333 71.5625 433.375 71.5625C440.417 71.5625 446.604 69.8958 451.938 66.5625V80.8125C446.021 83.9792 438.333 85.5625 428.875 85.5625C418.542 85.5625 410.521 82.7083 404.812 77C399.104 71.25 396.25 63.25 396.25 53C396.25 42.375 399.333 33.9583 405.5 27.75C411.667 21.5417 419.25 18.4375 428.25 18.4375C437.583 18.4375 444.792 21.2083 449.875 26.75C455 32.2917 457.562 39.8125 457.562 49.3125V57.625ZM439.25 45.5C439.25 36.3333 435.542 31.75 428.125 31.75C424.958 31.75 422.208 33.0625 419.875 35.6875C417.583 38.3125 416.188 41.5833 415.688 45.5H439.25ZM511.062 37.8125C508.688 36.5208 505.917 35.875 502.75 35.875C498.458 35.875 495.104 37.4583 492.688 40.625C490.271 43.75 489.062 48.0208 489.062 53.4375V84H469.312V20H489.062V31.875H489.312C492.438 23.2083 498.062 18.875 506.188 18.875C508.271 18.875 509.896 19.125 511.062 19.625V37.8125Z" fill="black"/>
</svg>
